<?xml version="1.0" encoding="UTF-8"?>
<svg width="29px" height="16px" viewBox="0 0 29 16" version="1.1" xmlns="http://www.w3.org/2000/svg" xmlns:xlink="http://www.w3.org/1999/xlink">
    <title>coupon</title>
    <g id="Page-1" stroke="none" stroke-width="1" fill="none" fill-rule="evenodd">
        <g id="D_GC-cart-page" transform="translate(-932.000000, -380.000000)" fill="#7B7B7B" fill-rule="nonzero">
            <g id="coupon" transform="translate(932.000000, 380.000000)">
                <rect id="Rectangle" x="8.47058824" y="9.41176471" width="1" height="1"></rect>
                <rect id="Rectangle" x="8.47058824" y="11.2941176" width="1" height="1"></rect>
                <rect id="Rectangle" x="8.47058824" y="13.1764706" width="1" height="1"></rect>
                <rect id="Rectangle" x="8.47058824" y="7.52941176" width="1" height="1"></rect>
                <rect id="Rectangle" x="8.47058824" y="5.64705882" width="1" height="1"></rect>
                <rect id="Rectangle" x="8.47058824" y="3.76470588" width="1" height="1"></rect>
                <rect id="Rectangle" x="8.47058824" y="1.88235294" width="1" height="1"></rect>
                <rect id="Rectangle" x="1.88235294" y="1.88235294" width="1" height="1"></rect>
                <rect id="Rectangle" x="25.4117647" y="1.88235294" width="1" height="1"></rect>
                <rect id="Rectangle" x="25.4117647" y="13.1764706" width="1" height="1"></rect>
                <rect id="Rectangle" x="1.88235294" y="13.1764706" width="1" height="1"></rect>
                <path d="M27.7647059,5.64705882 C28.0245882,5.64705882 28.2352941,5.43635294 28.2352941,5.17647059 L28.2352941,0.470588235 C28.2352941,0.210705882 28.0245882,0 27.7647059,0 L0.470588235,0 C0.210705882,0 0,0.210705882 0,0.470588235 L0,5.17647059 C0,5.43635294 0.210705882,5.64705882 0.470588235,5.64705882 C1.77005882,5.64705882 2.82352941,6.70052941 2.82352941,8 C2.82352941,9.29947059 1.77005882,10.3529412 0.470588235,10.3529412 C0.210705882,10.3529412 0,10.5636471 0,10.8235294 L0,15.5294118 C0,15.7892941 0.210705882,16 0.470588235,16 L27.7647059,16 C28.0245882,16 28.2352941,15.7892941 28.2352941,15.5294118 L28.2352941,10.8235294 C28.2352941,10.5636471 28.0245882,10.3529412 27.7647059,10.3529412 C26.4652353,10.3529412 25.4117647,9.29947059 25.4117647,8 C25.4117647,6.70052941 26.4652353,5.64705882 27.7647059,5.64705882 Z M24.5014118,8.468 C24.7091765,9.91564706 25.8465294,11.0529412 27.2941176,11.2607059 L27.2941176,15.0588235 L0.941176471,15.0588235 L0.941176471,11.2607059 C2.742,11.0022353 3.99235294,9.33288235 3.73388235,7.532 C3.52611765,6.08441176 2.38882353,4.94705882 0.941176471,4.73929412 L0.941176471,0.941176471 L27.2941176,0.941176471 L27.2941176,4.73929412 C25.4932941,4.99776471 24.2429412,6.66711765 24.5014118,8.468 Z" id="Shape"></path>
                <path d="M14.1176471,3.29411765 C13.0780588,3.29411765 12.2352941,4.13688235 12.2352941,5.17647059 C12.2352941,6.21605882 13.0780588,7.05882353 14.1176471,7.05882353 C15.1572353,7.05882353 16,6.21605882 16,5.17647059 C16,4.13688235 15.1572353,3.29411765 14.1176471,3.29411765 Z M14.1176471,6.11764706 C13.5978235,6.11764706 13.1764706,5.69629412 13.1764706,5.17647059 C13.1764706,4.65664706 13.5978235,4.23529412 14.1176471,4.23529412 C14.6374706,4.23529412 15.0588235,4.65664706 15.0588235,5.17647059 C15.0588235,5.69629412 14.6374706,6.11764706 14.1176471,6.11764706 Z" id="Shape"></path>
                <path d="M19.7647059,8.94117647 C18.7251176,8.94117647 17.8823529,9.78394118 17.8823529,10.8235294 C17.8823529,11.8631176 18.7251176,12.7058824 19.7647059,12.7058824 C20.8042941,12.7058824 21.6470588,11.8631176 21.6470588,10.8235294 C21.6470588,9.78394118 20.8042941,8.94117647 19.7647059,8.94117647 Z M19.7647059,11.7647059 C19.2448824,11.7647059 18.8235294,11.3433529 18.8235294,10.8235294 C18.8235294,10.3037059 19.2448824,9.88235294 19.7647059,9.88235294 C20.2845294,9.88235294 20.7058824,10.3037059 20.7058824,10.8235294 C20.7058824,11.3433529 20.2845294,11.7647059 19.7647059,11.7647059 Z" id="Shape"></path>
                <polygon id="Rectangle" transform="translate(16.941138, 7.998965) rotate(-45.000000) translate(-16.941138, -7.998965) " points="11.6171593 7.52838125 22.265116 7.52838125 22.265116 8.46954869 11.6171593 8.46954869"></polygon>
            </g>
        </g>
    </g>
</svg>